<?xml version="1.0" encoding="utf-8"?>
<!-- Svg Vector Icons : http://www.onlinewebfonts.com/icon -->
<!DOCTYPE svg PUBLIC "-//W3C//DTD SVG 1.1//EN" "http://www.w3.org/Graphics/SVG/1.1/DTD/svg11.dtd">
<svg version="1.1" xmlns="http://www.w3.org/2000/svg" xmlns:xlink="http://www.w3.org/1999/xlink" x="0px" y="0px" viewBox="0 0 1000 1000" enable-background="new 0 0 1000 1000" xml:space="preserve">
<metadata> Svg Vector Icons : http://www.onlinewebfonts.com/icon </metadata>
<g><path d="M782.4,990H217.6c-34,0-61.3-27.2-61.3-61.3V166.5c0-34,27.2-61.3,61.3-61.3h156.5v68.1H244.8c-13.6-6.8-27.2,6.8-27.2,27.2v694.2c0,20.4,13.6,34,34,34h503.6c20.4,0,34-13.6,34-34V200.6c0-20.4-13.6-34-34-34H625.9V98.5h156.5c34,0,61.3,27.2,61.3,61.3v755.4C843.7,956,816.5,990,782.4,990z M374.1,357.1h347.1v34H374.1V357.1z M374.1,452.4h347.1v34H374.1V452.4z M374.1,547.6h347.1v34H374.1V547.6z M374.1,642.9h347.1v34H374.1V642.9z M721.2,860.7H374.1v-34h347.1V860.7z M374.1,731.4h347.1v34H374.1V731.4z M278.8,357.1h34v34h-34V357.1z M278.8,452.4h34v34h-34V452.4z M278.8,547.6h34v34h-34V547.6z M278.8,636.1h34v34h-34V636.1z M312.8,860.7h-34v-34h34V860.7z M278.8,731.4h34v34h-34V731.4z M687.2,200.6c20.4,0,34,13.6,34,34c0,20.4,0,61.3,0,61.3H278.8c0,0,0-40.8,0-61.3c0-20.4,13.6-34,34-34h95.3c0,0,0-47.6,0-95.3c0-54.4,40.8-95.3,95.3-95.3c54.4,0,95.3,47.6,95.3,95.3c0,54.4,0,95.3,0,95.3H687.2z M496.6,105.3c-20.4,0-34,13.6-34,34s13.6,34,34,34c20.4,0,34-13.6,34-34S517,105.3,496.6,105.3z"/></g>
</svg>